<svg>
	<symbol viewBox="0 0 42 90" id="facebook">
		<path d="M9.1,17.4c0,2.3,0,12.4,0,12.4H0V45h9.1v45h18.6V45h12.5c0,0,1.2-7.3,1.7-15.2c-1.6,0-14.2,0-14.2,0
		s0-8.8,0-10.4c0-1.5,2-3.6,4-3.6c2,0,6.2,0,10.2,0c0-2.1,0-9.2,0-15.8c-5.2,0-11.2,0-13.8,0C8.6,0,9.1,15.2,9.1,17.4z"/>
	</symbol>
	<symbol viewBox="0 0 29 28" id="twitter">
		<path d="M79.8,27.6c5.1-0.4,8.5-2.7,9.8-5.8c-1.8,1.1-7.5,2.3-10.6,1.2c-0.2-0.7-0.3-1.4-0.5-2.1
		C76.1,12.1,68,5.1,59.4,5.9c0.7-0.3,1.4-0.5,2.1-0.8C62.5,4.8,68,3.9,67.1,2c-0.7-1.7-7.5,1.3-8.7,1.7C60,3,62.8,1.9,63.1,0
		c-2.6,0.4-5.1,1.6-7,3.3c0.7-0.8,1.2-1.7,1.3-2.7C50.6,5,46.6,13.9,43.3,22.4c-2.5-2.5-4.8-4.4-6.8-5.5c-5.7-3-12.4-6.2-23.1-10.2
		c-0.3,3.5,1.7,8.2,7.7,11.3c-1.3-0.2-3.7,0.2-5.5,0.7c0.8,4,3.3,7.4,10.1,9c-3.1,0.2-4.7,0.9-6.2,2.4c1.4,2.8,4.9,6.1,11.1,5.4
		c-6.9,3-2.8,8.5,2.8,7.7C23.8,53.1,8.7,52.4,0,44.1C22.7,75,71.9,62.4,79.3,32.7c5.5,0,8.7-1.9,10.7-4.1
		C86.8,29.1,82.2,28.6,79.8,27.6z"/>
	</symbol>
	<symbol viewBox="0 0 29 28" id="pinterest">
		<path d="M22.3,4C10.8,8.5,2.9,17.4,0.7,29.3c-1.3,7.3-0.8,15.3,2.4,22.1c0.7,1.5,1.6,3,2.6,4.3c0.5,0.7,1,1.3,1.6,1.9
		c1-0.4,2-0.8,3-1.4c3.9-2.2,6.8-5.6,10.2-8.5c-11.2-13,0.7-29.1,15.5-32.6c13.8-3.3,32.6,2.4,36.8,16.6c1.7,5.9,0.6,12.4-4.2,16.7
		c-2.5,2.2-5.7,3.7-9.1,4.3c-2,0.3-4,0.4-6,0.2c-1.1-0.1-2.2-0.3-3.3-0.6c-1.8-0.4-3.5-0.4-3.5-2.4c0-5.2,0-10.4,0-15.6
		c0-2.6,0-5.2,0-7.8c0-1.6,0.2-1.3-1.2-1.5c-1-0.1-2.1-0.2-3.1-0.3c-3.7-0.3-7.5-0.5-11.1,0.1c-1.4,0.2-1.4,0-1.4,1.5
		c0,1.2,0,2.4,0,3.6c0,2.9,0,5.8,0,8.7c0,8.7,0.7,17.5,0.3,26.1c-0.1,2.6-0.2,8.8-3.1,10.1c-3.4,1.5-6.3-1.7-9.4-2.3
		c0.4,4.4-2.3,13,2.8,15.2c4.7,2,10,2.8,14.9,1.1c10.3-3.5,13.6-14.9,12.3-24.3c15.9,4.7,33-3.2,39.8-17.5
		c4.8-10.2,2.8-22.9-4.5-31.5C69.3-0.6,41.6-3.7,22.3,4z"/>
	</symbol>
	<symbol viewBox="0 0 29 28" id="youtube">
		<path d="M63.4,65.8h-4.9l0-2.9c0-1.3,1-2.3,2.3-2.3h0.3c1.3,0,2.3,1,2.3,2.3L63.4,65.8z M44.9,59.7
		c-1.3,0-2.3,0.8-2.3,1.9v14c0,1,1,1.9,2.3,1.9c1.3,0,2.3-0.8,2.3-1.9v-14C47.2,60.5,46.2,59.7,44.9,59.7z M75,51.9v26.5
		C75,84.8,69.5,90,62.7,90H12.3C5.5,90,0,84.8,0,78.4V51.9c0-6.4,5.5-11.6,12.3-11.6h50.5C69.5,40.3,75,45.5,75,51.9z M15.6,81.3
		l0-28l6.3,0v-4.1l-16.7,0v4.1l5.2,0v28H15.6z M34.4,57.5h-5.2v14.9c0,2.2,0.1,3.2,0,3.6c-0.4,1.2-2.3,2.4-3.1,0.1
		c-0.1-0.4,0-1.6,0-3.6l0-15h-5.2l0,14.8c0,2.3-0.1,4,0,4.7c0.1,1.4,0.1,2.9,1.3,3.8c2.3,1.7,6.8-0.3,8-2.7l0,3.1l4.2,0V57.5z
		 M51.1,74.6l0-12.4c0-4.7-3.5-7.6-8.4-3.7l0-9.2l-5.2,0l0,31.9l4.3-0.1l0.4-2C47.6,84.1,51.1,80.6,51.1,74.6z M67.4,73l-3.9,0
		c0,0.2,0,0.3,0,0.5v2.2c0,1.2-1,2.1-2.1,2.1h-0.8c-1.2,0-2.1-1-2.1-2.1v-0.2V73V70h9v-3.4c0-2.5-0.1-4.9-0.3-6.3
		c-0.6-4.5-6.9-5.2-10.1-2.9c-1,0.7-1.7,1.7-2.2,2.9c-0.4,1.3-0.7,3-0.7,5.3V73C54.2,85.3,69.2,83.6,67.4,73z M47.3,32.7
		c0.3,0.7,0.7,1.2,1.3,1.6c0.6,0.4,1.3,0.6,2.1,0.6c0.8,0,1.4-0.2,2-0.6c0.6-0.4,1.1-1,1.5-1.9l-0.1,2h5.8V9.7h-4.6V29
		c0,1-0.9,1.9-1.9,1.9c-1,0-1.9-0.9-1.9-1.9V9.7h-4.8v16.7c0,2.1,0,3.5,0.1,4.3C46.9,31.4,47.1,32.1,47.3,32.7z M29.7,18.8
		c0-2.4,0.2-4.2,0.6-5.6c0.4-1.3,1.1-2.4,2.1-3.2c1-0.8,2.3-1.2,3.9-1.2c1.3,0,2.5,0.3,3.5,0.8c1,0.5,1.7,1.2,2.2,2
		c0.5,0.8,0.9,1.7,1.1,2.6c0.2,0.9,0.3,2.2,0.3,4v6.3c0,2.3-0.1,4-0.3,5.1c-0.2,1.1-0.6,2.1-1.1,3c-0.6,0.9-1.3,1.6-2.2,2.1
		c-0.9,0.4-2,0.7-3.2,0.7c-1.3,0-2.4-0.2-3.4-0.6c-0.9-0.4-1.6-1-2.1-1.7c-0.5-0.8-0.9-1.7-1.1-2.8c-0.2-1.1-0.3-2.7-0.3-4.9V18.8z
		 M34.3,28.6c0,1.4,1,2.5,2.3,2.5c1.3,0,2.3-1.1,2.3-2.5V15.4c0-1.4-1-2.5-2.3-2.5c-1.3,0-2.3,1.1-2.3,2.5V28.6z M18.2,35.2h5.5l0-19
		L30.2,0h-6l-3.4,12.1L17.2,0h-5.9l6.9,16.3L18.2,35.2z"/>
	</symbol>
	<symbol viewBox="0 0 29 28" id="instagram">
		<path d="M65.2,55.4c0-5.9-4.8-10.6-10.6-10.6c-5.9,0-10.6,4.8-10.6,10.6c0,5.9,4.8,10.6,10.6,10.6
			C60.4,66.1,65.2,61.3,65.2,55.4z"/>
		<path d="M81,0H27C12.1,0,0,12.1,0,27v7.5h39.7c4.2-3,9.3-4.8,14.8-4.8c5.5,0,10.6,1.8,14.8,4.8h20.1H108V27
			C108,12.1,95.9,0,81,0z M92,25.7c0,1.6-1.3,3-3,3h-9.3c-1.7,0-3-1.4-3-3v-9.3c0-1.6,1.3-3,3-3H89c1.7,0,3,1.4,3,3V25.7z"/>
		<path d="M80.2,55.4c0,14.1-11.5,25.6-25.6,25.6S28.9,69.6,28.9,55.4c0-3.9,0.9-7.6,2.4-10.9H0v37c0,14.9,12.1,27,27,27
			h54c14.9,0,27-12.1,27-27v-37H77.8C79.3,47.8,80.2,51.5,80.2,55.4z"/>
	</symbol>
</svg>